# xmcd
#
# Track frame offsets:
#	151
#	9886
#	22661
#	33726
#	47589
#	56892
#	67863
#	77510
#	90141
#	102054
#	114361
#	126292
#	137677
#	146480
#	160315
#
# Disc length: 2288 seconds
#
# Revision: 0
# Processed by: cddbd v1.4PL0 Copyright (c) Steve Scherf et al.
# Submitted via: EasyCDDAExtractor 4.6.0.1
#
DISCID=ae08ee0f
DTITLE=Marie King - Les légendes du Country CD 2
DYEAR=2000
DGENRE=Country
TTITLE0=Ma petite Carole
TTITLE1=Quand le soleil dit bonjour aux montagnes
TTITLE2=Laissez le bon temps rouler
TTITLE3=Coeur de maman
TTITLE4=La prière d'un vieillard - La chanson du prisonnier
TTITLE5=Ma petite maison de ma vallée
TTITLE6=Les cloches de ma vallée
TTITLE7=Un coin du ciel
TTITLE8=Mon petit Bobby
TTITLE9=Étoile de mes rêves
TTITLE10=Allo centrale
TTITLE11=Maman a raison
TTITLE12=J'aime à chanter
TTITLE13=Cette chansons
TTITLE14=Maman ne t'en fais pas
EXTD=
EXTT0=
EXTT1=
EXTT2=
EXTT3=
EXTT4=
EXTT5=
EXTT6=
EXTT7=
EXTT8=
EXTT9=
EXTT10=
EXTT11=
EXTT12=
EXTT13=
EXTT14=
PLAYORDER=
